<svg width="64" height="57" viewBox="0 0 64 57" fill="none" xmlns="http://www.w3.org/2000/svg">
<path d="M23.1111 0C19.7889 0 17.0333 2.28223 16.2444 5.36602C16.1556 5.36602 16.0889 5.34375 16 5.34375C12.0778 5.34375 8.88889 8.53887 8.88889 12.4688C8.88889 13.0031 8.95556 13.5264 9.07778 14.0273C5.83333 15.3633 3.55556 18.5473 3.55556 22.2656C3.55556 23.6684 3.91111 24.9709 4.47778 26.151C1.81111 27.6873 0 30.5373 0 33.8438C0 37.551 2.26667 40.735 5.48889 42.0709C5.38889 42.583 5.33333 43.1063 5.33333 43.6406C5.33333 48.0715 8.91111 51.6562 13.3333 51.6562C13.7889 51.6562 14.2333 51.6006 14.6667 51.5227C15.7333 54.6955 18.6889 57 22.2222 57C26.6444 57 30.2222 53.4152 30.2222 48.9844V7.125C30.2222 3.19512 27.0333 0 23.1111 0ZM64 33.8438C64 30.5373 62.1889 27.6873 59.5222 26.151C60.1 24.9709 60.4444 23.6684 60.4444 22.2656C60.4444 18.5473 58.1667 15.3633 54.9222 14.0273C55.0333 13.5264 55.1111 13.0031 55.1111 12.4688C55.1111 8.53887 51.9222 5.34375 48 5.34375C47.9111 5.34375 47.8333 5.36602 47.7556 5.36602C46.9667 2.28223 44.2111 0 40.8889 0C36.9667 0 33.7778 3.18398 33.7778 7.125V48.9844C33.7778 53.4152 37.3556 57 41.7778 57C45.3111 57 48.2667 54.6955 49.3333 51.5227C49.7667 51.6006 50.2111 51.6562 50.6667 51.6562C55.0889 51.6562 58.6667 48.0715 58.6667 43.6406C58.6667 43.1063 58.6111 42.583 58.5111 42.0709C61.7333 40.735 64 37.551 64 33.8438Z" fill="#FAFAFA"/>
<path d="M36.2645 20.6746L31.0053 22.8831V13.8536L26.7244 28.7565L31.0053 26.8614V37.0655L36.2645 20.6746ZM29.7532 13.1018L29.6514 13.4699L28.4618 17.6126C25.3079 18.8265 23.0696 21.8885 23.0696 25.4674C23.0696 29.5631 25.754 32.9776 29.5966 33.7294V37.9269C23.5 37.1047 19 31.8029 19 25.4752C19 19.171 23.68 13.9476 29.7532 13.1018ZM54.1238 48.1233C53.2473 49.0004 52.316 49.0865 51.8856 48.9455C51.4629 48.8046 49.7647 47.3871 47.1585 45.4685C44.5524 43.542 44.529 42.6727 43.7933 41.0281C43.0576 39.3914 41.4141 37.692 39.2932 36.9245L38.5341 35.7733C36.601 37.0968 34.3862 37.88 32.1714 38.0209L32.3358 37.5041L33.5801 33.6276C37.2193 32.6957 39.9115 29.3987 39.9115 25.4674C39.9115 21.1993 36.9063 17.4717 32.3984 17.0801V13C38.9098 13.3994 44.0437 18.8343 44.0437 25.4752C44.0437 28.1065 43.1672 30.5421 41.7741 32.5547L42.9168 33.3065C43.6837 35.4288 45.382 37.0655 47.0177 37.8016C48.6533 38.5378 49.5377 38.5613 51.4629 41.1691C53.3882 43.7691 54.8047 45.4685 54.9456 45.8913C55.0865 46.3142 55.0004 47.2462 54.1238 48.1233ZM53.349 46.7215C53.349 46.3769 53.0673 46.095 52.7229 46.095C52.3786 46.095 52.0969 46.3769 52.0969 46.7215C52.0969 47.066 52.3786 47.348 52.7229 47.348C53.0673 47.348 53.349 47.066 53.349 46.7215Z" fill="black"/>
</svg>
