<svg width="64" height="57" viewBox="0 0 64 57" fill="none" xmlns="http://www.w3.org/2000/svg">
<path d="M23.1111 0C19.7889 0 17.0333 2.28223 16.2444 5.36602C16.1556 5.36602 16.0889 5.34375 16 5.34375C12.0778 5.34375 8.88889 8.53887 8.88889 12.4688C8.88889 13.0031 8.95556 13.5264 9.07778 14.0273C5.83333 15.3633 3.55556 18.5473 3.55556 22.2656C3.55556 23.6684 3.91111 24.9709 4.47778 26.151C1.81111 27.6873 0 30.5373 0 33.8438C0 37.551 2.26667 40.735 5.48889 42.0709C5.38889 42.583 5.33333 43.1063 5.33333 43.6406C5.33333 48.0715 8.91111 51.6562 13.3333 51.6562C13.7889 51.6562 14.2333 51.6006 14.6667 51.5227C15.7333 54.6955 18.6889 57 22.2222 57C26.6444 57 30.2222 53.4152 30.2222 48.9844V7.125C30.2222 3.19512 27.0333 0 23.1111 0ZM64 33.8438C64 30.5373 62.1889 27.6873 59.5222 26.151C60.1 24.9709 60.4444 23.6684 60.4444 22.2656C60.4444 18.5473 58.1667 15.3633 54.9222 14.0273C55.0333 13.5264 55.1111 13.0031 55.1111 12.4688C55.1111 8.53887 51.9222 5.34375 48 5.34375C47.9111 5.34375 47.8333 5.36602 47.7556 5.36602C46.9667 2.28223 44.2111 0 40.8889 0C36.9667 0 33.7778 3.18398 33.7778 7.125V48.9844C33.7778 53.4152 37.3556 57 41.7778 57C45.3111 57 48.2667 54.6955 49.3333 51.5227C49.7667 51.6006 50.2111 51.6562 50.6667 51.6562C55.0889 51.6562 58.6667 48.0715 58.6667 43.6406C58.6667 43.1063 58.6111 42.583 58.5111 42.0709C61.7333 40.735 64 37.551 64 33.8438Z" fill="black"/>
<path d="M37.2645 22.6746L32.0053 24.8831V15.8536L27.7244 30.7565L32.0053 28.8614V39.0655L37.2645 22.6746ZM30.7532 15.1018L30.6514 15.4699L29.4618 19.6126C26.3079 20.8265 24.0696 23.8885 24.0696 27.4674C24.0696 31.5631 26.754 34.9776 30.5966 35.7294V39.9269C24.5 39.1047 20 33.8029 20 27.4752C20 21.171 24.68 15.9476 30.7532 15.1018ZM55.1238 50.1233C54.2473 51.0004 53.316 51.0865 52.8856 50.9455C52.4629 50.8046 50.7647 49.3871 48.1585 47.4685C45.5524 45.542 45.529 44.6727 44.7933 43.0281C44.0576 41.3914 42.4141 39.692 40.2932 38.9245L39.5341 37.7733C37.601 39.0968 35.3862 39.88 33.1714 40.0209L33.3358 39.5041L34.5801 35.6276C38.2193 34.6957 40.9115 31.3987 40.9115 27.4674C40.9115 23.1993 37.9063 19.4717 33.3984 19.0801V15C39.9098 15.3994 45.0437 20.8343 45.0437 27.4752C45.0437 30.1065 44.1672 32.5421 42.7741 34.5547L43.9168 35.3065C44.6837 37.4288 46.382 39.0655 48.0177 39.8016C49.6533 40.5378 50.5377 40.5613 52.4629 43.1691C54.3882 45.7691 55.8047 47.4685 55.9456 47.8913C56.0865 48.3142 56.0004 49.2462 55.1238 50.1233ZM54.349 48.7215C54.349 48.3769 54.0673 48.095 53.7229 48.095C53.3786 48.095 53.0969 48.3769 53.0969 48.7215C53.0969 49.066 53.3786 49.348 53.7229 49.348C54.0673 49.348 54.349 49.066 54.349 48.7215Z" fill="white"/>
</svg>
